<?xml version="1.0" encoding="UTF-8" standalone="no"?>
<!DOCTYPE svg PUBLIC "-//W3C//DTD SVG 1.1//EN" "http://www.w3.org/Graphics/SVG/1.1/DTD/svg11.dtd">
<svg width="100%" height="100%" viewBox="0 0 888 581" version="1.1" xmlns="http://www.w3.org/2000/svg" xmlns:xlink="http://www.w3.org/1999/xlink" xml:space="preserve" xmlns:serif="http://www.serif.com/" style="fill-rule:evenodd;clip-rule:evenodd;stroke-linejoin:round;stroke-miterlimit:2;">
    <g transform="matrix(0.86213,0,0,0.86213,140.289,78.9448)">
        <g transform="matrix(1,0,0,1,-156,-159.638)">
            <path d="M934.4,293.398L934.4,359.078C934.396,360.333 933.365,361.365 932.11,361.368L930.48,361.368L930.48,703.518C930.479,723.102 914.364,739.217 894.78,739.218L680.99,739.218C661.41,739.216 645.3,723.104 645.3,703.525C645.3,703.523 645.3,703.521 645.3,703.518L645.3,373.368L644.12,373.368C643.234,373.37 642.504,372.644 642.5,371.758L642.5,334.378C642.5,333.489 643.231,332.758 644.119,332.758L645.3,332.758L645.3,318.678L644.11,318.678C643.18,318.675 642.418,317.908 642.42,316.978L642.42,280.108C642.422,279.182 643.183,278.421 644.11,278.418L645.3,278.418L645.3,259.198L644.088,259.198C643.266,259.198 642.59,258.522 642.59,257.7C642.59,257.7 642.59,257.699 642.59,257.698L642.59,237.578C642.588,236.753 643.264,236.072 644.09,236.068L645.3,236.068L645.3,195.328C645.3,175.75 661.411,159.639 680.99,159.638L894.78,159.638C914.36,159.638 930.474,175.748 930.48,195.328L930.48,291.108L932.11,291.108C933.365,291.112 934.396,292.143 934.4,293.398Z" style="fill:rgb(63,61,86);fill-rule:nonzero;"/>
        </g>
        <path d="M644.727,21.255C644.727,19.628 643.406,18.307 641.778,18.307L607.852,18.307C606.224,18.307 604.903,19.628 604.903,21.255L604.903,23.445C604.903,25.072 606.224,26.393 607.852,26.393L641.778,26.393C643.406,26.393 644.727,25.072 644.727,23.445L644.727,21.255Z" style="fill:rgb(230,232,236);"/>
        <circle cx="655.335" cy="22.35" r="4.587" style="fill:rgb(230,232,236);"/>
        <g transform="matrix(1,0,0,1,-156,-159.638)">
            <path d="M913.385,202.388L913.385,706.478C913.379,718.9 903.156,729.118 890.735,729.118L686.085,729.118C686.072,729.118 686.058,729.118 686.045,729.118C673.642,729.118 663.435,718.911 663.435,706.508C663.435,706.498 663.435,706.488 663.435,706.478L663.435,202.388C663.435,202.388 663.435,202.388 663.435,202.387C663.435,189.962 673.659,179.738 686.084,179.738L716.715,179.738L716.715,183.668C716.715,193.899 725.134,202.318 735.365,202.318L839.445,202.318C849.676,202.318 858.095,193.899 858.095,183.668L858.095,179.738L890.735,179.738C890.737,179.738 890.74,179.738 890.742,179.738C903.163,179.738 913.385,189.959 913.385,202.381C913.385,202.383 913.385,202.386 913.385,202.388Z" style="fill:white;fill-rule:nonzero;"/>
        </g>
        <rect x="528.827" y="351.959" width="208" height="27" style="fill:rgb(230,230,230);"/>
        <rect x="528.827" y="399.959" width="208" height="27" style="fill:rgb(230,230,230);"/>
        <rect x="528.827" y="447.959" width="208" height="27" style="fill:rgb(230,230,230);"/>
        <circle cx="713.827" cy="90.959" r="20" style="fill:rgb(222,71,113);"/>
        <rect x="528.41" y="157.959" width="208" height="138" style="fill:rgb(230,230,230);"/>
        <g transform="matrix(1,0,0,1,-156,-159.638)">
            <path d="M767.235,395.188C773.309,417.638 794.111,431.542 794.111,431.542C794.111,431.542 805.066,409.047 798.993,386.597C792.92,364.147 772.118,350.243 772.118,350.243C772.118,350.243 761.162,372.738 767.235,395.188Z" style="fill:rgb(63,61,86);fill-rule:nonzero;"/>
        </g>
        <g transform="matrix(1,0,0,1,-156,-159.638)">
            <path d="M776.159,390.363C792.824,406.586 794.86,431.524 794.86,431.524C794.86,431.524 769.876,430.16 753.211,413.937C736.547,397.714 734.511,372.777 734.511,372.777C734.511,372.777 759.495,374.141 776.159,390.363Z" style="fill:rgb(222,71,113);fill-rule:nonzero;"/>
        </g>
        <g transform="matrix(1,0,0,1,-156,-159.638)">
            <path d="M822.484,395.188C816.411,417.638 795.609,431.542 795.609,431.542C795.609,431.542 784.654,409.047 790.727,386.597C796.8,364.147 817.602,350.243 817.602,350.243C817.602,350.243 828.557,372.738 822.484,395.188Z" style="fill:rgb(63,61,86);fill-rule:nonzero;"/>
        </g>
        <g transform="matrix(1,0,0,1,-156,-159.638)">
            <path d="M813.56,390.363C796.895,406.586 794.86,431.524 794.86,431.524C794.86,431.524 819.843,430.16 836.508,413.937C853.173,397.714 855.209,372.777 855.209,372.777C855.209,372.777 830.225,374.141 813.56,390.363Z" style="fill:rgb(222,71,113);fill-rule:nonzero;"/>
        </g>
    </g>
    <g transform="matrix(0.939492,0,0,0.939492,-400.363,34.1075)">
        <g transform="matrix(1,0,0,1,-156,-159.638)">
            <path d="M934.4,293.398L934.4,359.078C934.396,360.333 933.365,361.365 932.11,361.368L930.48,361.368L930.48,703.518C930.479,723.102 914.364,739.217 894.78,739.218L680.99,739.218C661.41,739.216 645.3,723.104 645.3,703.525C645.3,703.523 645.3,703.521 645.3,703.518L645.3,373.368L644.12,373.368C643.234,373.37 642.504,372.644 642.5,371.758L642.5,334.378C642.5,333.489 643.231,332.758 644.119,332.758L645.3,332.758L645.3,318.678L644.11,318.678C643.18,318.675 642.418,317.908 642.42,316.978L642.42,280.108C642.422,279.182 643.183,278.421 644.11,278.418L645.3,278.418L645.3,259.198L644.088,259.198C643.266,259.198 642.59,258.522 642.59,257.7C642.59,257.7 642.59,257.699 642.59,257.698L642.59,237.578C642.588,236.753 643.264,236.072 644.09,236.068L645.3,236.068L645.3,195.328C645.3,175.75 661.411,159.639 680.99,159.638L894.78,159.638C914.36,159.638 930.474,175.748 930.48,195.328L930.48,291.108L932.11,291.108C933.365,291.112 934.396,292.143 934.4,293.398Z" style="fill:rgb(63,61,86);fill-rule:nonzero;"/>
        </g>
        <path d="M644.727,21.012C644.727,19.519 643.514,18.307 642.021,18.307L607.609,18.307C606.116,18.307 604.903,19.519 604.903,21.012L604.903,23.688C604.903,25.181 606.116,26.393 607.609,26.393L642.021,26.393C643.514,26.393 644.727,25.181 644.727,23.688L644.727,21.012Z" style="fill:rgb(230,232,236);"/>
        <circle cx="655.335" cy="22.35" r="4.587" style="fill:rgb(230,232,236);"/>
        <g transform="matrix(1,0,0,1,-156,-159.638)">
            <path d="M913.385,202.388L913.385,706.478C913.379,718.9 903.156,729.118 890.735,729.118L686.085,729.118C686.072,729.118 686.058,729.118 686.045,729.118C673.642,729.118 663.435,718.911 663.435,706.508C663.435,706.498 663.435,706.488 663.435,706.478L663.435,202.388C663.435,202.388 663.435,202.388 663.435,202.387C663.435,189.962 673.659,179.738 686.084,179.738L716.715,179.738L716.715,183.668C716.715,193.899 725.134,202.318 735.365,202.318L839.445,202.318C849.676,202.318 858.095,193.899 858.095,183.668L858.095,179.738L890.735,179.738C890.737,179.738 890.74,179.738 890.742,179.738C903.163,179.738 913.385,189.959 913.385,202.381C913.385,202.383 913.385,202.386 913.385,202.388Z" style="fill:white;fill-rule:nonzero;"/>
        </g>
        <rect x="528.827" y="351.959" width="208" height="27" style="fill:rgb(230,230,230);"/>
        <rect x="528.827" y="399.959" width="208" height="27" style="fill:rgb(230,230,230);"/>
        <rect x="528.827" y="447.959" width="208" height="27" style="fill:rgb(230,230,230);"/>
        <circle cx="713.827" cy="90.959" r="20" style="fill:rgb(222,71,113);"/>
        <rect x="528.41" y="157.959" width="208" height="138" style="fill:rgb(230,230,230);"/>
        <g transform="matrix(1,0,0,1,-156,-159.638)">
            <path d="M767.235,395.188C773.309,417.638 794.111,431.542 794.111,431.542C794.111,431.542 805.066,409.047 798.993,386.597C792.92,364.147 772.118,350.243 772.118,350.243C772.118,350.243 761.162,372.738 767.235,395.188Z" style="fill:rgb(63,61,86);fill-rule:nonzero;"/>
        </g>
        <g transform="matrix(1,0,0,1,-156,-159.638)">
            <path d="M776.159,390.363C792.824,406.586 794.86,431.524 794.86,431.524C794.86,431.524 769.876,430.16 753.211,413.937C736.547,397.714 734.511,372.777 734.511,372.777C734.511,372.777 759.495,374.141 776.159,390.363Z" style="fill:rgb(222,71,113);fill-rule:nonzero;"/>
        </g>
        <g transform="matrix(1,0,0,1,-156,-159.638)">
            <path d="M822.484,395.188C816.411,417.638 795.609,431.542 795.609,431.542C795.609,431.542 784.654,409.047 790.727,386.597C796.8,364.147 817.602,350.243 817.602,350.243C817.602,350.243 828.557,372.738 822.484,395.188Z" style="fill:rgb(63,61,86);fill-rule:nonzero;"/>
        </g>
        <g transform="matrix(1,0,0,1,-156,-159.638)">
            <path d="M813.56,390.363C796.895,406.586 794.86,431.524 794.86,431.524C794.86,431.524 819.843,430.16 836.508,413.937C853.173,397.714 855.209,372.777 855.209,372.777C855.209,372.777 830.225,374.141 813.56,390.363Z" style="fill:rgb(222,71,113);fill-rule:nonzero;"/>
        </g>
    </g>
    <g transform="matrix(0.0818821,-0.935917,0.994214,0.0869825,-16.4069,854.004)">
        <path d="M930.48,195.328L930.48,703.518C930.479,723.102 914.364,739.217 894.78,739.218L894.78,159.638C914.36,159.638 930.474,175.748 930.48,195.328Z" style="fill:rgb(63,61,86);fill-rule:nonzero;"/>
    </g>
    <g transform="matrix(0.939492,0,0,0.939492,185.001,20.5056)">
        <g transform="matrix(1,0,0,1,-156,-159.638)">
            <path d="M304.558,539.723C304.558,539.723 315.363,556.859 311.504,561.499C307.646,566.139 340.454,566.255 340.454,566.255C340.454,566.255 335.526,541.327 336.976,535.59L304.558,539.723Z" style="fill:rgb(255,184,184);fill-rule:nonzero;"/>
        </g>
        <circle cx="165.825" cy="352.416" r="33.88" style="fill:rgb(47,46,65);"/>
        <path d="M245.51,536.052L245.51,556.137L265.594,551.952L263.921,537.726L245.51,536.052Z" style="fill:rgb(255,184,184);fill-rule:nonzero;"/>
        <g transform="matrix(1,0,0,1,-156,-159.638)">
            <path d="M472.642,699.038L528.712,708.243L514.485,729.165C514.485,729.165 475.153,715.775 465.111,715.775C455.069,715.775 472.642,699.038 472.642,699.038Z" style="fill:rgb(255,184,184);fill-rule:nonzero;"/>
        </g>
        <g transform="matrix(1,0,0,1,-156,-159.638)">
            <path d="M345.441,658.869C345.441,658.869 387.284,610.331 400.673,612.842C414.063,615.353 419.921,630.416 419.921,630.416L427.452,704.896C427.452,704.896 400.673,707.406 400.673,704.896C400.673,702.385 395.652,648.827 395.652,648.827C395.652,648.827 356.32,735.859 335.399,678.117L345.441,658.869Z" style="fill:rgb(208,205,225);fill-rule:nonzero;"/>
        </g>
        <g transform="matrix(1,0,0,1,-156,-159.638)">
            <path d="M277.656,691.506C277.656,691.506 278.493,735.349 303.598,737.859C328.704,740.37 356.32,719.122 356.32,719.122L401.51,697.473C401.51,697.473 455.069,725.817 470.969,718.285C470.969,718.285 487.706,700.712 476.827,695.69C465.948,690.669 475.99,695.69 475.99,695.69L411.552,662.216C411.552,662.216 398.999,658.869 377.241,668.074C355.483,677.28 326.193,681.464 326.193,681.464L277.656,691.506Z" style="fill:rgb(208,205,225);fill-rule:nonzero;"/>
        </g>
        <circle cx="163.498" cy="363.66" r="25.106" style="fill:rgb(255,184,184);"/>
        <g transform="matrix(1,0,0,1,-156,-159.638)">
            <path d="M355.483,593.594L353.809,628.742C353.809,628.742 354.646,674.769 347.115,678.117C343.307,679.807 335.658,683.205 328.587,686.92C323.281,689.699 318.302,692.644 315.523,695.18C314.787,695.806 314.152,696.543 313.64,697.364C310.293,703.222 288.535,702.385 283.514,698.201C278.493,694.017 281.84,703.222 277.656,704.896C273.605,706.519 267.99,693.247 271.43,673.43C271.538,672.769 271.664,672.1 271.798,671.422C275.639,652.216 269.605,606.214 270.534,588.439C270.588,587.081 270.731,585.728 270.961,584.389C273.472,570.999 305.506,543.751 311.498,555.359C318.879,569.686 335.834,556.597 338.746,550.078C355.483,549.241 361.341,569.326 361.341,569.326L355.483,593.594Z" style="fill:rgb(222,71,113);fill-rule:nonzero;"/>
        </g>
        <g transform="matrix(1,0,0,1,-156,-159.638)">
            <path d="M423.268,708.243C423.268,708.243 409.879,713.264 405.694,712.427C401.51,711.591 397.326,714.938 397.326,719.959C397.326,724.98 392.305,736.696 399.836,737.533C407.368,738.37 438.332,736.696 445.026,739.207C445.026,739.207 475.153,740.044 472.642,727.491C470.132,714.938 457.579,715.775 457.579,715.775C457.579,715.775 423.268,714.101 423.268,708.243Z" style="fill:rgb(47,46,65);fill-rule:nonzero;"/>
        </g>
        <g transform="matrix(1,0,0,1,-156,-159.638)">
            <path d="M521.18,710.754C521.18,710.754 522.854,705.733 525.364,705.733C527.875,705.733 547.959,709.08 550.47,708.243C552.98,707.406 582.27,705.733 577.249,719.959C572.228,734.186 555.491,735.859 555.491,735.859C555.491,735.859 525.364,732.512 521.18,733.349C516.996,734.186 501.932,733.349 504.443,729.165C506.953,724.98 522.854,717.449 521.18,710.754Z" style="fill:rgb(47,46,65);fill-rule:nonzero;"/>
        </g>
        <g transform="matrix(1,0,0,1,-156,-159.638)">
            <path d="M445.005,590.551L449.596,609.49C449.647,609.701 449.639,609.922 449.573,610.129L428.747,675.211C428.59,675.699 428.133,676.033 427.62,676.033C427.021,676.033 426.512,675.579 426.445,674.984L423.563,649.63C423.544,649.462 423.562,649.292 423.614,649.13L442.73,590.463C442.889,589.978 443.344,589.647 443.855,589.647C444.399,589.647 444.876,590.022 445.005,590.551Z" style="fill:rgb(63,61,86);fill-rule:nonzero;"/>
        </g>
        <path d="M287.316,432.512L291.555,448.761L273.186,508.105L268.947,489.737L287.316,432.512Z" style="fill:white;fill-rule:nonzero;"/>
        <g transform="matrix(1,0,0,1,-156,-159.638)">
            <path d="M350.768,680.46C351.474,682.579 424.241,679.753 424.947,679.047C425.563,678.162 426.084,677.215 426.502,676.221C427.166,674.808 427.773,673.395 427.773,673.395L424.947,650.519L352.887,647.962C352.887,647.962 351.085,667.348 350.718,676.221C350.593,677.632 350.61,679.052 350.768,680.46Z" style="fill:rgb(63,61,86);fill-rule:nonzero;"/>
        </g>
        <path d="M259.763,493.975L261.176,513.757L229.385,513.757L229.385,493.975L259.763,493.975Z" style="fill-opacity:0.1;fill-rule:nonzero;"/>
        <path d="M218.788,500.334L218.978,500.296L218.081,508.811L200.419,508.811L200.419,500.334L218.788,500.334Z" style="fill-opacity:0.1;fill-rule:nonzero;"/>
        <g transform="matrix(1,0,0,1,-156,-159.638)">
            <path d="M350.768,680.46C351.474,682.579 424.241,679.753 424.947,679.047C425.563,678.162 426.084,677.215 426.502,676.221L350.718,676.221C350.593,677.632 350.61,679.052 350.768,680.46Z" style="fill-opacity:0.1;fill-rule:nonzero;"/>
        </g>
        <circle cx="171.439" cy="315.379" r="9.442" style="fill:rgb(47,46,65);"/>
        <g transform="matrix(1,0,0,1,-156,-159.638)">
            <path d="M324.599,485.295C324.599,485.295 314.953,501.34 292.521,507.347C270.089,513.354 292.338,547.062 292.338,547.062C292.338,547.062 284.247,534.804 295.917,521.823C307.586,508.842 326.365,499.967 324.599,485.295Z" style="fill:rgb(47,46,65);fill-rule:nonzero;"/>
        </g>
        <g transform="matrix(1,0,0,1,-156,-159.638)">
            <path d="M328.587,686.92C326.52,690.828 324.093,694.887 323.683,696.527C323.407,697.64 320.344,696.996 315.523,695.18C305.858,691.523 289.104,683.146 273.472,674.769C272.751,674.387 272.067,673.939 271.43,673.43C271.538,672.769 271.664,672.1 271.798,671.422C275.639,652.216 269.605,606.214 270.534,588.439L277.656,586.063L291.882,599.452L291.882,656.358C291.882,656.358 328.704,676.443 331.214,678.117C332.495,678.97 330.729,682.861 328.587,686.92Z" style="fill-opacity:0.1;fill-rule:nonzero;"/>
        </g>
        <g transform="matrix(1,0,0,1,-156,-159.638)">
            <path d="M359.667,641.295L382.262,653.011C382.262,653.011 395.652,638.784 404.021,649.664C412.389,660.543 379.752,663.89 379.752,663.89C379.752,663.89 351.299,657.195 350.462,647.99C349.625,638.784 359.667,641.295 359.667,641.295Z" style="fill:rgb(255,184,184);fill-rule:nonzero;"/>
        </g>
        <g transform="matrix(1,0,0,1,-156,-159.638)">
            <path d="M322.009,672.259L335.399,675.606C335.399,675.606 350.462,657.195 366.362,663.89C382.262,670.585 346.278,683.974 346.278,683.974C346.278,683.974 327.03,694.017 319.498,685.648C311.967,677.28 322.009,672.259 322.009,672.259Z" style="fill:rgb(255,184,184);fill-rule:nonzero;"/>
        </g>
        <g transform="matrix(1,0,0,1,-156,-159.638)">
            <path d="M351.299,561.794C352.136,562.631 361.341,569.326 361.341,569.326C361.341,569.326 363.852,601.126 360.504,607.821C357.157,614.516 354.646,614.516 357.157,617.863C359.667,621.211 363.015,618.7 359.667,624.558C356.32,630.416 352.973,629.579 355.483,632.09C357.994,634.6 357.157,635.437 357.157,635.437L367.199,643.806C367.199,643.806 361.038,653.619 353.239,652.896C345.441,652.174 338.746,614.516 338.746,614.516L351.299,561.794Z" style="fill:rgb(222,71,113);fill-rule:nonzero;"/>
        </g>
        <g transform="matrix(1,0,0,1,-156,-159.638)">
            <path d="M277.656,581.878L270.124,584.389C270.124,584.389 250.04,658.032 273.472,670.585C296.903,683.138 322.846,695.69 323.683,692.343C324.52,688.996 333.725,675.606 331.214,673.932C328.704,672.258 291.882,652.174 291.882,652.174L291.882,595.268L277.656,581.878Z" style="fill:rgb(222,71,113);fill-rule:nonzero;"/>
        </g>
        <path d="M132.953,452.785L131.28,492.954L175.633,513.876L134.627,492.954L132.953,452.785Z" style="fill-opacity:0.1;fill-rule:nonzero;"/>
    </g>
    <g transform="matrix(0.939492,0,0,0.939492,26.8656,35.1385)">
        <rect x="0" y="578.483" width="888" height="2.241" style="fill:rgb(63,61,86);"/>
    </g>
</svg>
